<svg xmlns="http://www.w3.org/2000/svg" viewBox="0 0 385.75 58.61"><defs><style>.cls-1{fill:#2ea8d3;}</style></defs><title>Горизонтальный логотип Цветной</title><g id="Слой_2" data-name="Слой 2"><g id="Слой_1-2" data-name="Слой 1"><path class="cls-1" d="M2.73.67A2.74,2.74,0,0,0,0,3.56,57.75,57.75,0,0,0,58,58.41,57.74,57.74,0,0,0,115.39,2.86,2.73,2.73,0,0,0,112.63,0Z"/><path class="cls-1" d="M173.79,6.34H155.32V31.15h-7.48V1.44h33.38V31.17h-7.43Z"/><path class="cls-1" d="M352.74,20.55,344.06,9.9h2.09c1.63,0,3.27,0,4.9,0a1.3,1.3,0,0,1,1.2.58c1.78,2.44,3.62,4.84,5.41,7.29a1.29,1.29,0,0,0,1.26.61c.71,0,1.43,0,2.22,0V10h7.25v8.39c1,0,1.9,0,2.8,0,.22,0,.48-.29.64-.51q2.79-3.69,5.53-7.4a1.15,1.15,0,0,1,1.06-.53c2.29,0,4.59,0,7.13,0-3,3.61-5.83,7.09-8.72,10.61l8.92,10.63c-.31,0-.5.07-.7.07-2.19,0-4.39,0-6.58,0a1.18,1.18,0,0,1-1.06-.55c-1.76-2.46-3.57-4.88-5.31-7.36a1.58,1.58,0,0,0-1.58-.77c-.67.05-1.34,0-2.08,0v8.59h-7.25V22.57c-1,0-2,0-2.94,0-.22,0-.45.34-.62.56-1.82,2.48-3.64,5-5.43,7.47a1.27,1.27,0,0,1-1.18.61c-2.35,0-4.7,0-7.27,0Z"/><path class="cls-1" d="M195.09,28.72V39.65h-7.22V10h6.85v3.38a10.11,10.11,0,0,1,4.64-3.12,17.73,17.73,0,0,1,11,0c3.91,1.28,5.74,4.25,6.22,8.17a17,17,0,0,1-.3,6,8.34,8.34,0,0,1-5.42,6.38,18,18,0,0,1-12.78-.11A19,19,0,0,1,195.09,28.72Zm0-7.88c0,3.25,1.06,5,3.84,6.06a10.08,10.08,0,0,0,6.14.39,5.33,5.33,0,0,0,4.23-4.41,10.18,10.18,0,0,0,0-4.53,5.12,5.12,0,0,0-4-4.11,12.58,12.58,0,0,0-3.18-.31C197.59,14.06,195.08,16.58,195.08,20.84Z"/><path class="cls-1" d="M313.2,9.94h7.11V24.11l.18.06.67-.74q5.56-6.49,11.13-13a1.42,1.42,0,0,1,1.23-.55c2.22,0,4.43,0,6.7,0V31.14h-7.09V16.92l-.2-.11c-.16.19-.31.39-.48.58Q326.8,24,321.14,30.54a1.71,1.71,0,0,1-1.49.69c-2.14,0-4.27,0-6.45,0Z"/><path class="cls-1" d="M240.82,24.27H248a6.25,6.25,0,0,1-3,5.08,14,14,0,0,1-6.4,2.14,28.64,28.64,0,0,1-10.75-.55c-4.87-1.3-7.56-4.72-7.68-9.78a13,13,0,0,1,.79-5.35,9,9,0,0,1,5.95-5.34,24.16,24.16,0,0,1,14.38-.18c4.57,1.37,6.89,4.63,7,9.42,0,.61,0,1.23,0,2H227.51a5.44,5.44,0,0,0,4,5.57,10.62,10.62,0,0,0,6.93-.21A3.47,3.47,0,0,0,240.82,24.27Zm.31-5.62a5.19,5.19,0,0,0-3.81-4.95,9.89,9.89,0,0,0-6.53.27,5.07,5.07,0,0,0-3.18,4.68Z"/><path class="cls-1" d="M279.33,17.2h-7.07a1.26,1.26,0,0,1-.12-.26,3.4,3.4,0,0,0-2.69-2.86,11.67,11.67,0,0,0-6.65,0A5.25,5.25,0,0,0,259,18.16a9.92,9.92,0,0,0,.11,5.16,5.32,5.32,0,0,0,4.47,3.89,12,12,0,0,0,5.64-.19,3.63,3.63,0,0,0,3-3.11h7.06A5.82,5.82,0,0,1,277.83,28a8.77,8.77,0,0,1-4.73,2.86,25.94,25.94,0,0,1-14.79-.2c-4.27-1.37-6.56-4.52-6.8-9a11.51,11.51,0,0,1,1.81-7.66,10,10,0,0,1,6.13-3.83,27.48,27.48,0,0,1,14.12.28c2.75.82,4.91,2.37,5.59,5.39A13.6,13.6,0,0,1,279.33,17.2Z"/><path class="cls-1" d="M299.3,31.16a5.78,5.78,0,0,1-.59.05H292v-17H281.68V10H309.6v4.23H299.3Z"/><path class="cls-1" d="M148.87,54.34c0,2,.9,3.19,2.51,3.19a2.06,2.06,0,0,0,2.27-2h1.19v0c0,1.75-1.47,3-3.47,3-2.34,0-3.7-1.59-3.7-4.27V53.1c0-2.7,1.36-4.32,3.7-4.32A3.22,3.22,0,0,1,154.84,52v0h-1.19a2.13,2.13,0,0,0-2.27-2.12c-1.61,0-2.51,1.17-2.51,3.24Z"/><path class="cls-1" d="M162.47,58.41h-5.66V49h5.66v1.08H158v3h4.21v1H158v3.22h4.46Z"/><path class="cls-1" d="M164.54,58.41V49h1.18l3.12,7.29h0L172,49h1.17v9.43h-1.09V51.56h0l-2.67,6.07h-1l-2.67-6.07h0v6.85Z"/><path class="cls-1" d="M181.23,58.41h-5.66V49h5.66v1.08h-4.45v3H181v1h-4.21v3.22h4.45Z"/><path class="cls-1" d="M189.27,51h0l-4.81,7.45h-1.12V49h1.19v7.45h0L189.35,49h1.12v9.43h-1.2Zm-3.73-4.86c0,.68.45,1.17,1.39,1.17s1.37-.49,1.37-1.17h.85c0,1-.72,1.87-2.22,1.87s-2.24-.87-2.24-1.87Z"/><path class="cls-1" d="M198.84,58.41V54.07h-4.75v4.34h-1.21V49h1.21v4h4.75V49h1.21v9.43Z"/><path class="cls-1" d="M201.49,58.41,204.85,49h1.23l3.36,9.43h-1.27l-1-2.83H203.7l-.95,2.83Zm3.95-8L204,54.6h2.87l-1.41-4.2Z"/><path class="cls-1" d="M213.9,54.69l-2.28,3.72h-1.36l2.38-3.87a2.57,2.57,0,0,1-2.1-2.69,2.8,2.8,0,0,1,3.1-2.87H217v9.43h-1.21V54.69Zm1.89-1.07V50.05h-2.1a1.65,1.65,0,0,0-1.9,1.78c0,1.18.67,1.79,1.9,1.79Z"/><path class="cls-1" d="M223.07,54.34c0,2,.89,3.19,2.5,3.19a2.07,2.07,0,0,0,2.28-2H229v0c0,1.75-1.47,3-3.47,3-2.34,0-3.71-1.59-3.71-4.27V53.1c0-2.7,1.37-4.32,3.71-4.32A3.22,3.22,0,0,1,229,52v0h-1.19a2.14,2.14,0,0,0-2.28-2.12c-1.61,0-2.5,1.17-2.5,3.24Z"/><path class="cls-1" d="M232.88,58.41V50.06H230V49h6.93v1.08h-2.86v8.35Z"/><path class="cls-1" d="M237.78,53.05c0-2.68,1.51-4.27,3.8-4.27s3.77,1.59,3.77,4.27v1.39c0,2.67-1.5,4.17-3.8,4.17s-3.77-1.5-3.77-4.17ZM239,54.44c0,2.11,1.12,3.09,2.58,3.09s2.57-1,2.57-3.09V53c0-2.11-1.12-3.18-2.57-3.18S239,50.93,239,53Z"/><path class="cls-1" d="M247.39,58.41V49h1.17l3.12,7.29h0L254.83,49H256v9.43h-1.09V51.56h0l-2.67,6.07h-1l-2.68-6.07h0v6.85Z"/><path class="cls-1" d="M257.46,58.41,260.81,49h1.24l3.35,9.43h-1.27l-.95-2.83h-3.51l-1,2.83Zm4-8L260,54.6h2.86l-1.41-4.2Z"/><path class="cls-1" d="M268.13,58.41V50.06h-2.87V49h6.94v1.08h-2.87v8.35Z"/><path class="cls-1" d="M273,53.05c0-2.68,1.5-4.27,3.79-4.27s3.77,1.59,3.77,4.27v1.39c0,2.67-1.5,4.17-3.79,4.17S273,57.11,273,54.44Zm1.21,1.39c0,2.11,1.12,3.09,2.57,3.09s2.57-1,2.57-3.09V53c0-2.11-1.11-3.18-2.57-3.18s-2.57,1.07-2.57,3.18Z"/><path class="cls-1" d="M283.34,49h5.75v9.43h-1.2V50.05H284.5l-.07,2.11c-.14,4.44-.35,6.32-2.45,6.32a1.24,1.24,0,0,1-.44-.07v-1.1a1.31,1.31,0,0,0,.35,0c1.13,0,1.29-1.61,1.38-5.31Z"/><path class="cls-1" d="M291.13,53.05c0-2.68,1.51-4.27,3.8-4.27s3.76,1.59,3.76,4.27v1.39c0,2.67-1.5,4.17-3.79,4.17s-3.77-1.5-3.77-4.17Zm1.21,1.39c0,2.11,1.12,3.09,2.57,3.09s2.57-1,2.57-3.09V53c0-2.11-1.11-3.18-2.57-3.18s-2.57,1.07-2.57,3.18Z"/><path class="cls-1" d="M300.73,58.41V49h5.57v1.08h-4.36v8.35Z"/><path class="cls-1" d="M314,51h0l-4.81,7.45h-1.12V49h1.19v7.45h.05l4.8-7.45h1.13v9.43H314Z"/><path class="cls-1" d="M320.63,54.69l-2.28,3.72H317l2.38-3.87a2.57,2.57,0,0,1-2.1-2.69A2.8,2.8,0,0,1,320.38,49h3.35v9.43h-1.21V54.69Zm1.89-1.07V50.05h-2.09c-1.24,0-1.91.62-1.91,1.78s.67,1.79,1.91,1.79Z"/></g></g></svg>